<?xml version="1.0" standalone="no"?>
<!DOCTYPE svg PUBLIC "-//W3C//DTD SVG 20010904//EN"
 "http://www.w3.org/TR/2001/REC-SVG-20010904/DTD/svg10.dtd">
<svg version="1.0" xmlns="http://www.w3.org/2000/svg"
 width="400.000000pt" height="400.000000pt" viewBox="0 0 400.000000 400.000000"
 preserveAspectRatio="xMidYMid meet">
<metadata>
Created by potrace 1.14, written by Peter Selinger 2001-2017
</metadata>
<g transform="translate(0.000000,400.000000) scale(0.100000,-0.100000)"
fill="#000000" stroke="none">
<path d="M2086 2802 c-3 -5 -55 -138 -116 -296 -94 -245 -109 -291 -98 -302
11 -12 17 -12 30 -2 19 15 240 586 232 599 -7 11 -41 12 -48 1z m34 -8 c0 -18
-224 -584 -232 -584 -14 0 -10 13 56 182 34 89 84 218 110 286 26 67 52 122
57 122 5 0 9 -3 9 -6z"/>
<path d="M1721 2615 c-66 -53 -121 -103 -121 -110 0 -19 239 -207 259 -203 40
8 20 38 -78 115 -56 43 -101 82 -101 88 0 6 45 45 101 88 98 77 118 107 78
115 -9 2 -71 -40 -138 -93z m139 68 c-1 -5 -48 -44 -105 -88 -57 -44 -104 -84
-104 -90 0 -5 47 -46 104 -90 97 -74 118 -95 97 -95 -16 0 -227 172 -227 185
0 13 211 185 227 185 4 0 8 -3 8 -7z"/>
<path d="M2131 2696 c-15 -18 -7 -27 112 -119 48 -38 87 -70 87 -72 0 -2 -39
-34 -87 -72 -119 -92 -127 -101 -112 -119 6 -8 16 -14 21 -14 18 0 248 190
248 205 0 15 -230 205 -248 205 -5 0 -15 -6 -21 -14z m144 -97 c63 -50 115
-93 115 -94 0 -10 -234 -185 -243 -182 -6 2 36 41 93 87 58 46 105 88 105 95
0 7 -46 49 -102 93 -57 45 -103 84 -103 87 0 16 32 -5 135 -86z"/>
<path d="M80 1810 l0 -220 45 0 45 0 0 80 0 80 80 0 c97 0 142 17 170 62 28
46 27 126 -2 163 -35 45 -74 55 -213 55 l-125 0 0 -220z m246 132 c23 -15 34
-50 24 -77 -12 -32 -46 -45 -121 -45 l-59 0 0 65 0 65 73 0 c39 0 77 -4 83 -8z"/>
<path d="M2503 2013 c-20 -8 -15 -51 7 -63 40 -22 80 26 48 58 -12 12 -33 14
-55 5z"/>
<path d="M3512 2008 c-20 -20 -14 -48 13 -60 30 -14 55 3 55 37 0 33 -44 47
-68 23z"/>
<path d="M770 1888 c-58 -40 -75 -72 -75 -143 0 -69 15 -99 69 -139 22 -17 42
-21 101 -21 87 0 117 17 153 86 43 82 8 191 -74 225 -53 22 -135 18 -174 -8z
m158 -84 c50 -56 12 -146 -62 -146 -52 0 -86 33 -86 83 0 53 9 69 44 85 40 17
75 10 104 -22z"/>
<path d="M1138 1889 c-84 -44 -101 -176 -31 -241 35 -32 83 -48 145 -48 47 0
49 -1 43 -22 -4 -13 -11 -27 -16 -32 -9 -11 -83 -11 -129 -1 -32 7 -32 7 -25
-26 10 -48 17 -53 90 -57 74 -5 116 8 145 46 18 22 20 41 20 202 l0 177 -39
11 c-61 19 -160 14 -203 -9z m137 -59 c25 -9 26 -13 23 -77 l-3 -68 -47 -3
c-40 -3 -52 1 -73 22 -44 44 -29 108 30 125 40 12 40 12 70 1z"/>
<path d="M1710 1903 c-23 -8 -40 -34 -40 -61 0 -19 4 -23 18 -17 9 3 38 9 64
12 54 7 98 -14 98 -47 0 -16 -5 -19 -30 -14 -88 18 -180 -30 -180 -93 0 -47
16 -72 55 -89 35 -14 158 -19 214 -8 l31 7 0 109 c0 125 -13 169 -59 192 -29
16 -137 21 -171 9z m140 -217 c0 -28 -4 -34 -25 -39 -40 -7 -89 7 -93 26 -6
31 17 47 69 47 49 0 49 0 49 -34z"/>
<path d="M1998 1903 c-16 -4 -18 -20 -18 -159 l0 -154 40 0 40 0 0 119 c0 112
1 120 21 126 33 11 69 -3 79 -31 6 -14 10 -68 10 -120 l0 -94 40 0 40 0 0 105
c0 92 3 108 20 125 24 24 53 26 74 4 13 -12 16 -39 16 -125 l0 -109 46 0 46 0
-3 131 -4 131 -33 29 c-28 25 -40 29 -93 29 -38 0 -69 -6 -84 -16 -22 -14 -26
-14 -47 0 -22 15 -144 21 -190 9z"/>
<path d="M2893 1903 c-16 -3 -25 -15 -32 -41 -6 -20 -9 -38 -7 -40 2 -2 21 1
43 7 59 17 101 13 124 -10 11 -11 19 -25 17 -30 -2 -6 -33 -11 -68 -13 -109
-4 -146 -36 -138 -117 2 -25 12 -39 37 -56 29 -20 47 -23 122 -23 48 0 100 5
115 10 l26 10 -4 113 c-5 129 -20 169 -69 186 -31 11 -121 13 -166 4z m147
-217 c0 -28 -4 -34 -25 -39 -47 -8 -90 6 -93 32 -5 31 12 41 71 41 47 0 47 0
47 -34z"/>
<path d="M3193 1903 c-23 -4 -23 -7 -23 -159 l0 -154 40 0 40 0 0 119 0 119
31 6 c18 3 43 1 58 -7 26 -12 26 -14 29 -125 l3 -112 44 0 45 0 0 110 c0 179
-26 211 -167 209 -43 -1 -88 -4 -100 -6z"/>
<path d="M3689 1887 c-100 -66 -90 -236 16 -287 49 -24 131 -26 180 -6 38 16
41 23 23 61 -8 18 -17 24 -27 19 -75 -30 -120 -26 -151 13 -11 14 -20 30 -20
34 0 5 53 9 119 9 l118 0 -8 47 c-17 91 -68 133 -160 133 -42 0 -65 -6 -90
-23z m143 -64 c36 -32 23 -43 -52 -43 -38 0 -70 4 -70 8 0 5 9 18 20 30 25 26
76 29 102 5z"/>
<path d="M493 1893 c-23 -4 -23 -7 -23 -154 l0 -149 45 0 45 0 0 115 0 115 50
0 50 0 0 40 0 40 -72 -1 c-40 -1 -83 -4 -95 -6z"/>
<path d="M1443 1893 c-23 -4 -23 -7 -23 -154 l0 -149 45 0 45 0 0 115 0 115
50 0 50 0 0 40 0 40 -72 -1 c-40 -1 -83 -4 -95 -6z"/>
<path d="M2490 1745 l0 -155 40 0 40 0 0 155 0 155 -40 0 -40 0 0 -155z"/>
<path d="M2633 1893 c-23 -4 -23 -7 -23 -154 l0 -149 45 0 45 0 0 115 0 115
50 0 50 0 0 40 0 40 -72 -1 c-40 -1 -83 -4 -95 -6z"/>
<path d="M3500 1732 c0 -188 -5 -202 -68 -202 -33 0 -41 -16 -26 -54 10 -26
106 -22 139 7 36 31 44 78 45 260 l0 157 -45 0 -45 0 0 -168z"/>
</g>
</svg>
